<?xml version="1.0" standalone="no"?>
<!DOCTYPE svg PUBLIC "-//W3C//DTD SVG 20010904//EN"
 "http://www.w3.org/TR/2001/REC-SVG-20010904/DTD/svg10.dtd">
<svg version="1.0" xmlns="http://www.w3.org/2000/svg"
 width="983.000000pt" height="302.000000pt" viewBox="0 0 983.000000 302.000000"
 preserveAspectRatio="xMidYMid meet">

<g transform="translate(0.000000,302.000000) scale(0.100000,-0.100000)"
fill="#000000" stroke="none">
<path d="M1425 2774 c-121 -73 -225 -137 -232 -142 -9 -6 -13 -115 -14 -452
-1 -245 -4 -453 -6 -462 -4 -16 -19 -18 -139 -18 l-134 0 0 396 c0 336 -2 395
-14 391 -31 -12 -452 -279 -464 -295 -9 -12 -12 -165 -12 -683 l0 -668 27 -19
c46 -31 428 -261 446 -268 16 -6 17 19 17 335 l0 342 138 -3 137 -3 5 -412 5
-412 125 -77 c69 -42 171 -106 227 -141 57 -35 110 -66 118 -69 13 -5 15 42
15 399 l0 404 123 82 c67 44 126 81 130 81 3 0 84 -48 179 -106 95 -59 183
-113 195 -121 22 -13 23 -18 25 -223 l3 -210 246 152 c136 85 254 159 263 167
14 12 16 34 14 160 l-3 146 -205 122 c-113 67 -227 135 -254 151 l-48 29 38
23 c22 13 137 88 257 167 l217 142 0 248 c0 136 -4 253 -8 259 -7 12 -331 209
-862 524 -179 106 -327 194 -330 196 -3 1 -104 -58 -225 -132z m579 -599 c180
-112 334 -208 343 -214 13 -7 -53 -55 -317 -231 -184 -122 -340 -224 -347
-227 -11 -4 -13 75 -13 436 0 243 2 441 4 441 2 0 151 -92 330 -205z"/>
<path d="M6690 2233 c-94 -34 -130 -80 -130 -164 0 -68 26 -113 84 -142 111
-58 263 -12 296 89 39 116 -57 226 -195 223 -22 0 -47 -3 -55 -6z"/>
<path d="M7466 2054 c-200 -48 -368 -223 -407 -422 -17 -90 -7 -242 21 -317
63 -166 186 -282 360 -341 84 -29 263 -26 352 4 215 74 358 261 375 488 20
280 -155 527 -418 589 -79 18 -205 18 -283 -1z m231 -316 c41 -12 96 -75 111
-127 20 -66 15 -169 -12 -226 -13 -27 -32 -58 -42 -67 -55 -49 -167 -62 -240
-29 -45 21 -85 67 -103 120 -18 54 -14 179 8 226 24 53 81 102 128 110 21 4
43 8 48 10 13 3 61 -4 102 -17z"/>
<path d="M3210 1505 l0 -545 175 0 175 0 0 215 0 215 160 0 160 0 0 -215 0
-215 175 0 175 0 0 545 0 545 -175 0 -175 0 0 -195 0 -195 -160 0 -160 0 0
195 0 195 -175 0 -175 0 0 -545z"/>
<path d="M4380 1505 l0 -545 170 0 170 0 2 236 3 237 158 -237 157 -236 200 0
c110 0 200 3 200 6 0 3 -86 128 -192 277 -105 150 -192 279 -192 287 0 13 89
139 331 473 l35 47 -194 0 -194 0 -155 -227 -154 -226 -3 226 -2 227 -170 0
-170 0 0 -545z"/>
<path d="M5540 1505 l0 -545 175 0 175 0 2 190 3 190 100 -190 100 -190 188 0
c103 0 186 3 184 8 -93 160 -217 381 -222 393 -5 13 6 22 42 40 61 30 122 91
153 154 20 41 24 65 24 140 1 76 -3 99 -25 145 -34 74 -76 120 -139 154 -95
52 -129 56 -457 56 l-303 0 0 -545z m556 231 c30 -34 32 -94 5 -127 -17 -22
-29 -24 -115 -27 l-96 -4 0 97 0 97 91 -4 c85 -4 94 -6 115 -32z"/>
<path d="M8290 1505 l0 -545 170 0 170 0 2 273 3 272 180 -272 180 -272 173 0
172 -1 0 545 0 545 -170 0 -170 0 -2 -276 -3 -277 -179 277 -178 276 -174 0
-174 0 0 -545z"/>
<path d="M6580 1395 l0 -435 170 0 170 0 0 435 0 435 -170 0 -170 0 0 -435z"/>
</g>
</svg>
